<?xml version="1.0" encoding="utf-8"?>
<!-- Generator: Adobe Illustrator 16.0.0, SVG Export Plug-In . SVG Version: 6.00 Build 0)  -->
<!DOCTYPE svg PUBLIC "-//W3C//DTD SVG 1.1//EN" "http://www.w3.org/Graphics/SVG/1.1/DTD/svg11.dtd">
<svg version="1.1" id="Layer_4" xmlns="http://www.w3.org/2000/svg" xmlns:xlink="http://www.w3.org/1999/xlink" x="0px" y="0px"
	 width="283.536px" height="283.535px" viewBox="0 0 283.536 283.535" enable-background="new 0 0 283.536 283.535"
	 xml:space="preserve">
<g>
	<linearGradient id="SVGID_1_" gradientUnits="userSpaceOnUse" x1="78.8999" y1="108.3691" x2="264.8303" y2="207.1447">
		<stop  offset="0" style="stop-color:#FBD7A6"/>
		<stop  offset="1" style="stop-color:#E6737C"/>
	</linearGradient>
	<path fill="url(#SVGID_1_)" d="M195.038,273.656c-7.778,7.778-22.835,11.813-33.46,8.966L54.184,253.847
		c-10.625-2.848-21.647-13.87-24.494-24.495L0.913,121.957c-2.847-10.625,1.188-25.682,8.966-33.46L88.496,9.879
		c7.779-7.778,22.836-11.812,33.461-8.966l107.395,28.776c10.625,2.847,21.647,13.87,24.495,24.495l28.776,107.394
		c2.847,10.625-1.188,25.683-8.966,33.461L195.038,273.656z"/>
	<linearGradient id="SVGID_2_" gradientUnits="userSpaceOnUse" x1="120.5898" y1="281.3184" x2="134.5899" y2="228.3184">
		<stop  offset="0" style="stop-color:#FBD7A6"/>
		<stop  offset="1" style="stop-color:#E6737C"/>
	</linearGradient>
	<path fill="url(#SVGID_2_)" d="M32.123,235.357c4.566,8.491,13.444,16.18,22.062,18.489l107.393,28.775
		c10.625,2.848,25.683-1.188,33.461-8.966l38.299-38.299H32.123z"/>
	<g>
		<path fill="#2F4A60" d="M217.825,194.919V84.639c0-2.862-2.329-5.189-5.192-5.189H33.552c-2.861,0-5.191,2.327-5.191,5.189v110.28
			H217.825z"/>
		<path fill="#E5E8EC" d="M27.989,195.13v15.944c0,3.07,2.492,5.56,5.562,5.56h179.081c3.071,0,5.563-2.489,5.563-5.56V195.13
			H27.989z"/>
		<path fill="#E5E8EC" d="M155.853,240.124c0,0-1.378-0.682-2.963-1.278c-1.689-0.635-3.721-1.431-4.916-2.005
			c-2.097-1.006-2.276-1.667-3.06-5.098c-0.856-3.748-1.658-11.659-1.981-15.109h-39.674c-0.325,3.45-1.126,11.361-1.982,15.109
			c-0.784,3.431-0.961,4.092-3.059,5.098c-1.183,0.567-3.185,1.353-4.863,1.983l0,0c-1.609,0.608-2.923,1.074-2.923,1.074
			s-1.273,0.709,0.774,0.811h63.782C156.91,240.745,155.853,240.124,155.853,240.124z"/>
		<path fill="#CDD5D7" d="M143.348,220.8c-0.176-1.64-0.32-3.112-0.418-4.166h-39.675c-0.098,1.054-0.242,2.526-0.419,4.166H143.348
			z"/>
		<polygon fill="#5E7382" points="62.392,194.919 101.82,194.919 173.899,79.45 134.471,79.45 		"/>
		<polygon fill="#5E7382" points="113.086,194.919 127.479,194.919 199.556,79.45 185.161,79.45 		"/>
		<rect x="37.164" y="88.347" fill="#F3F3F3" width="171.853" height="96.772"/>
		<polygon fill="#FFFFFF" points="68.511,185.119 107.938,185.119 168.345,88.347 128.913,88.347 		"/>
		<polygon fill="#FFFFFF" points="133.598,185.119 194.003,88.347 179.609,88.347 119.202,185.119 		"/>
	</g>
	<g>
		<polygon fill="#B0D9EF" points="195.939,172.857 83.439,172.857 83.439,102.357 84.439,102.357 84.439,171.857 195.939,171.857 		
			"/>
	</g>
	<g>
		<path fill="#E6737C" d="M62.652,129.686c-3.08,0-5.991-1.102-8.281-3.117l8.698-8.699h12.116
			c-0.177,3.076-1.459,5.941-3.655,8.139C69.158,128.379,66.006,129.686,62.652,129.686z"/>
		<path fill="#FBD7A6" d="M63.47,115.961V104.6c6.195,0.391,11.119,5.182,11.68,11.361H63.47z"/>
		<g>
			<path fill="#B6C2C9" d="M62.602,133.311c-3.961,0-7.773-1.448-10.733-4.077l1.328-1.495c2.594,2.303,5.934,3.572,9.405,3.572
				c7.814,0,14.171-6.357,14.171-14.172c0-7.579-5.924-13.797-13.486-14.155l0.095-1.998c8.631,0.409,15.392,7.504,15.392,16.153
				C78.773,126.056,71.519,133.311,62.602,133.311z"/>
		</g>
		<g>
			<path fill="#FFFFFF" d="M50.725,126.217c-1.99-2.6-3.076-5.784-3.076-9.078c0-7.459,5.554-13.763,12.831-14.8v13.919
				L50.725,126.217z"/>
			<path fill="#B6C2C9" d="M59.48,103.541v12.309l-8.628,8.809c-1.431-2.232-2.203-4.837-2.203-7.52
				C48.649,110.574,53.26,104.969,59.48,103.541L59.48,103.541z M61.48,101.229c-8.286,0.576-14.831,7.477-14.831,15.91
				c0,4.057,1.518,7.758,4.011,10.572l10.82-11.045V101.229L61.48,101.229z"/>
		</g>
	</g>
	<g>
		<g>
			<rect x="50.939" y="139.357" fill="#E6737C" width="6.667" height="2"/>
		</g>
		<g>
			<rect x="60.69" y="139.357" fill="#B6C2C9" width="14.167" height="2"/>
		</g>
		<g>
			<rect x="50.939" y="144.857" fill="#FBD7A6" width="6.667" height="2"/>
		</g>
		<g>
			<rect x="60.69" y="144.857" fill="#B6C2C9" width="14.167" height="2"/>
		</g>
		<g>
			<rect x="50.939" y="150.357" fill="#D8E5ED" width="6.667" height="2"/>
		</g>
		<g>
			<rect x="60.69" y="150.357" fill="#B6C2C9" width="14.167" height="2"/>
		</g>
	</g>
	<g>
		<g>
			<rect x="83.94" y="108.191" fill="#D8E5ED" width="107.333" height="1"/>
		</g>
		<g>
			<rect x="83.94" y="117.524" fill="#D8E5ED" width="107.333" height="1"/>
		</g>
		<g>
			<rect x="83.94" y="126.858" fill="#D8E5ED" width="107.333" height="1"/>
		</g>
		<g>
			<rect x="83.94" y="136.191" fill="#D8E5ED" width="107.333" height="1"/>
		</g>
		<g>
			<rect x="83.94" y="145.525" fill="#D8E5ED" width="107.333" height="1"/>
		</g>
		<g>
			<rect x="83.94" y="154.859" fill="#D8E5ED" width="107.333" height="1"/>
		</g>
		<g>
			<rect x="83.94" y="164.193" fill="#D8E5ED" width="107.333" height="1"/>
		</g>
	</g>
	<g>
		<g>
			<g>
				<rect x="147.773" y="172.479" fill="#D8E5ED" width="1" height="3.751"/>
			</g>
			<g>
				<rect x="138.44" y="172.479" fill="#D8E5ED" width="1" height="3.751"/>
			</g>
			<g>
				<rect x="129.106" y="172.479" fill="#D8E5ED" width="1" height="3.751"/>
			</g>
			<g>
				<rect x="119.773" y="172.479" fill="#D8E5ED" width="1" height="3.751"/>
			</g>
			<g>
				<rect x="110.439" y="172.479" fill="#D8E5ED" width="1" height="3.751"/>
			</g>
			<g>
				<rect x="101.105" y="172.479" fill="#D8E5ED" width="1" height="3.751"/>
			</g>
			<g>
				<rect x="91.771" y="172.479" fill="#D8E5ED" width="1" height="3.751"/>
			</g>
		</g>
		<g>
			<g>
				<rect x="194.439" y="172.479" fill="#D8E5ED" width="1" height="3.751"/>
			</g>
			<g>
				<rect x="185.106" y="172.479" fill="#D8E5ED" width="1" height="3.751"/>
			</g>
			<g>
				<rect x="175.772" y="172.479" fill="#D8E5ED" width="1" height="3.751"/>
			</g>
			<g>
				<rect x="166.438" y="172.479" fill="#D8E5ED" width="1" height="3.751"/>
			</g>
			<g>
				<rect x="157.104" y="172.479" fill="#D8E5ED" width="1" height="3.751"/>
			</g>
		</g>
	</g>
	<g>
		<polygon fill="#E6737C" points="84.69,164.656 83.188,162.059 128.702,135.74 156.457,143.699 189.968,116.181 191.871,118.499 
			157.143,147.016 129.101,138.975 		"/>
	</g>
	<g>
		<polygon fill="#FBD7A6" points="135.65,155.595 110.244,140.484 84.354,152.268 83.525,150.447 110.368,138.23 135.402,153.12 
			163.939,127.23 189.708,135.404 189.104,137.311 164.432,129.484 		"/>
	</g>
	<g>
		<path fill="#CDD5D7" d="M264.135,136.853c0,2.353-1.908,4.26-4.26,4.26h-59.077c-2.353,0-4.26-1.908-4.26-4.26V44.83
			c0-2.353,1.908-4.26,4.26-4.26h59.077c2.352,0,4.26,1.907,4.26,4.26V136.853z"/>
		<path fill="#E5E8EC" d="M200.798,140.466c-1.992,0-3.614-1.621-3.614-3.613V44.83c0-1.993,1.622-3.614,3.614-3.614h59.077
			c1.991,0,3.614,1.621,3.614,3.614v92.023c0,1.993-1.623,3.613-3.614,3.613H200.798z"/>
		<g>
			<circle fill="#596273" cx="230.336" cy="44.513" r="0.601"/>
		</g>
		<path fill="#CDD5D7" d="M234.076,136.524c0,0.443-0.359,0.801-0.801,0.801h-5.877c-0.441,0-0.801-0.358-0.801-0.801v-1.602
			c0-0.444,0.359-0.801,0.801-0.801h5.877c0.442,0,0.801,0.357,0.801,0.801V136.524z"/>
		<rect x="199.947" y="50.036" fill="#F3F3F3" width="60.779" height="80.852"/>
		<g>
			<polygon fill="#FFFFFF" points="199.947,73.092 199.947,96.258 228.389,50.036 214.135,50.036 			"/>
			<polygon fill="#FFFFFF" points="199.947,109.101 236.292,50.036 230.868,50.036 199.947,100.286 			"/>
		</g>
	</g>
	<g>
		<g>
			<polygon fill="#B0D9EF" points="249.606,115.857 208.772,115.857 208.772,64.691 209.772,64.691 209.772,114.857 
				249.606,114.857 			"/>
		</g>
		<g>
			<polygon fill="#FBD7A6" points="210.68,115.03 209.199,113.685 219.766,102.062 230.955,109.182 245.425,100.5 246.454,102.215 
				230.924,111.533 220.113,104.653 			"/>
		</g>
		<g>
			<g>
				<rect x="213.606" y="64.691" fill="#E6737C" width="6.667" height="2"/>
			</g>
			<g>
				<rect x="223.357" y="64.691" fill="#B6C2C9" width="14.167" height="2"/>
			</g>
			<g>
				<rect x="213.606" y="70.191" fill="#FBD7A6" width="6.667" height="2"/>
			</g>
			<g>
				<rect x="223.357" y="70.191" fill="#B6C2C9" width="14.167" height="2"/>
			</g>
			<g>
				<rect x="213.606" y="75.691" fill="#D8E5ED" width="6.667" height="2"/>
			</g>
			<g>
				<rect x="223.357" y="75.691" fill="#B6C2C9" width="14.167" height="2"/>
			</g>
		</g>
		<g>
			<polygon fill="#E6737C" points="210.834,102.001 208.866,99.737 220.421,89.686 236.986,94.579 248.628,73.629 251.25,75.086 
				238.441,98.136 221.148,93.029 			"/>
		</g>
	</g>
</g>
</svg>
